<svg fill="none" height="1268" viewBox="0 0 1191 1268" width="1191" xmlns="http://www.w3.org/2000/svg" xmlns:xlink="http://www.w3.org/1999/xlink"><mask id="a" height="1268" maskUnits="userSpaceOnUse" width="1191" x="0" y="0"><path clip-rule="evenodd" d="m0 0h1190.45v1267.46h-1190.45z" fill="#fff" fill-rule="evenodd"/></mask><g mask="url(#a)" opacity=".1"><path clip-rule="evenodd" d="m645.725 1064.23c-.091-1.81.157-4.99-.548-8.16-2.152-9.81-7.252-18.19-12.717-26.37-9.275-13.9-21.575-25.16-32.754-37.389-7.526-8.242-14.974-8.32-22.54-.013-6.965 7.655-14.426 14.802-21.457 22.382-5.831 6.27-11.283 12.86-15.875 20.11-13.109 20.67-13.083 44.28.705 63.61 13.213 18.53 31.266 28.17 54.276 25.65 24.118-2.63 51.928-28.32 50.91-59.82zm-54.784-436.996c-9.757-.443-20.623 2.048-30.51 7.982-18.275 10.98-27.366 27.53-27.549 48.604-.117 13.211 5.244 24.74 13.618 34.977 9.874 12.102 21.392 22.64 31.801 34.22 8.492 9.442 16.579 9.925 25.775 1.174 11.087-10.577 21.809-21.531 32.584-32.434 13.905-14.071 17.948-31.038 13.957-50.091-5.792-27.713-28.175-44.81-59.676-44.432zm360.482-138.941c14.049 0 28.123.535 42.145-.13 17.572-.835 32.362-8.229 43.252-22.196 14.13-18.115 15.08-38.629 8.6-59.638-6.9-22.327-17.65-42.958-30.39-62.507-30.631-46.948-71.655-83.203-117.948-113.902-41.91-27.804-87.225-48.383-135.396-62.754-30.614-9.129-61.763-15.885-93.421-20.305-20.466-2.857-41.023-4.734-61.632-6.339-22.736-1.773-45.406-1.551-68.051.509-23.061 2.087-45.614 7.225-67.907 13.276-87.994 23.852-167.419 64.789-238.743 121.336-35.936 28.482-63.824 63.458-80.403 106.729-5.518 14.411-9.457 28.965-7.657 44.758 3.222 28.208 26.075 48.422 55.098 51.161 16.553 1.564 33.171 1.017 49.749 1.369 41.872.9 83.769-.365 125.653.795 27.692.783 55.398.783 83.09 1.644 23.218.73 46.449.678 69.668 1.447 18.744.613 37.527.678 56.284.783 38.31.234 76.634.743 114.931-.652 10.357-.392 20.661.808 31.005.847 19.149.092 38.297-.248 57.459.561 21.274.9 42.601.691 63.915 1.526 19.879.782 39.797.939 59.702 1.604 13.644.443 27.327.078 40.997.078zm-350.686-488.172494c10.226 0 20.453.169536 30.666-.0391239 20.075-.3912371 39.98.5868559 59.872 3.8341279 27.588 4.51226 55.124 9.11579 82.216 16.11899 58.058 15.0104 113.169 37.4283 165.554 66.4712 40.606 22.4963 78.045 49.4653 111.915 81.2993 51.03 47.952 90.4 104.16 119.05 167.958 6.66 14.802 12.68 29.838 18.23 45.083 1.55 4.239 2.23 8.582 2.21 13.133-.07 20.814-.04 41.628-.04 62.441 0 2.556.04 5.113-.73 7.603-7.8 25.144-16.12 50.04-30.11 72.653-24.07 38.85-58.15 65.259-100.44 81.56-22.11 8.529-45.2 12.311-68.77 13.902-19.162 1.291-38.323.991-57.407-.352-29.596-2.087-59.193-2.4-88.803-1.891-11.309.196-22.736.169-33.953 2.113-10.07 1.747-14.753 7.564-14.858 17.71-.078 7.185 1.396 14.215 1.892 21.335 3.861 54.369-11.818 102.361-47.428 143.61-12 13.889-26.192 25.405-41.871 35.055-4.448 2.739-8.974 5.438-13.122 8.594-8.309 6.312-9.77 15.232-4.187 24.061 2.387 3.795 5.282 7.212 8.452 10.381 14.088 14.098 28.305 28.052 42.276 42.267 26.14 26.604 41.597 58.529 45.81 95.569 6.105 53.6-4.852 103.39-35.167 148.35-19.2 28.5-44.675 50.21-74.624 66.88-14.348 7.98-29.518 13.98-44.976 19.34-4.369 1.51-8.87 2.24-13.526 2.22-18.405-.07-36.797-.26-55.189.07-8.974.16-17.466-1.33-25.892-4.17-31.084-10.51-59.69-25.26-83.912-47.78-20.036-18.64-35.075-40.77-46.045-65.73-11.075-25.22-17.831-51.62-20.218-79.02-4.409-50.7 10.174-95.236 44.01-133.46 12.679-14.319 28.096-25.639 41.584-39.072 4.526-4.499 9.026-9.024 13.2-13.862 10.357-11.998 9.131-21.988-3.861-31.273-10.487-7.512-21.079-14.841-30.979-23.162-25.997-21.818-43.136-49.452-54.015-81.26-8.257-24.087-11.387-48.93-9.966-74.282.496-8.764 1.892-17.502 3.196-26.2 2.192-14.724-3.13-21.14-18.04-22.379-19.187-1.591-38.362-3.521-57.602-4.291-14.413-.586-28.853-.43-43.24.926-4.318.405-8.649.692-12.979.913-36.106 1.839-71.938.522-107.104-8.959-56.363-15.206-98.6515-48.083-126.5525-99.583-9.6526-17.827-14.8441-37.141-21.14429-56.143-2.98707-9.011-4.1740662-18.023-3.939275-27.451.300011-12.129.613066-24.296-.06522-36.385-.782637-14.033 2.517485-27.022 7.513315-39.88 8.51767-21.897 19.76157-42.319 32.57077-61.933 16.8397-25.77 34.3447-51.096 54.2889-74.609 31.5533-37.181 67.1373-69.98 107.0653-98.057 48.706-34.2466 101.547-60.2639 157.349-80.6734 41.414-15.1539 83.964-25.5869 127.452-32.36837 16.501-2.58217 33.08-4.73397 49.633-6.977064 2.634-.3521138 5.361-.195619 8.035-.195619 18.913-.013041 37.814 0 56.715-.013041z" fill="#fff" fill-rule="evenodd"/></g></svg>